<?xml version="1.0" encoding="utf-8"?>
<!-- Generator: Adobe Illustrator 16.0.0, SVG Export Plug-In . SVG Version: 6.00 Build 0)  -->
<!DOCTYPE svg PUBLIC "-//W3C//DTD SVG 1.1//EN" "http://www.w3.org/Graphics/SVG/1.1/DTD/svg11.dtd">
<svg version="1.1" id="Layer_1" xmlns="http://www.w3.org/2000/svg" xmlns:xlink="http://www.w3.org/1999/xlink" x="0px" y="0px"
	 width="465px" height="137px" viewBox="0 0 465 137" enable-background="new 0 0 465 137" xml:space="preserve">
<path fill="#FFFFFF" d="M158.71,59.427h-2.242c-0.89,4.147-3.936,6.771-7.999,6.771c-2.158,0-4.19-0.806-5.714-2.328
	c-2.158-2.157-2.327-4.486-2.327-10.961c0-6.476,0.169-8.802,2.327-10.961c1.524-1.523,3.556-2.327,5.714-2.327
	c4.063,0,7.025,2.623,7.914,6.771h2.327c-0.974-5.459-4.867-8.803-10.241-8.803c-2.836,0-5.544,1.101-7.533,3.089
	c-2.751,2.75-2.793,5.418-2.793,12.231c0,6.812,0.042,9.479,2.793,12.23c1.989,1.989,4.697,3.088,7.533,3.088
	C153.759,68.228,157.736,64.886,158.71,59.427"/>
<path fill-rule="evenodd" clip-rule="evenodd" fill="#FFFFFF" d="M181.388,67.975V47.578h-2.159v12.653
	c0,3.852-2.116,6.093-5.755,6.093c-3.64,0-5.629-2.158-5.629-6.093V47.578h-2.158v13.033c0,2.412,0.761,4.359,2.116,5.671
	c1.311,1.271,3.132,1.945,5.417,1.945c2.455,0,4.486-0.888,6.009-2.664v2.411H181.388z"/>
<path fill-rule="evenodd" clip-rule="evenodd" fill="#FFFFFF" d="M202.544,49.27c-1.439-1.438-2.962-1.947-4.909-1.947
	c-2.413,0-4.783,1.059-5.968,2.964v-2.708h-2.157v20.396h2.157V55.405c0-3.301,1.948-6.178,5.46-6.178
	c1.692,0,2.623,0.381,3.851,1.608L202.544,49.27z"/>
<path fill="#FFFFFF" d="M214.011,67.975v-1.903h-1.482c-2.158,0-3.131-1.271-3.131-3.387V49.186h4.613v-1.607h-4.613V41.06h-2.159
	v6.519h-2.793v1.607h2.793v13.457c0,3.09,1.693,5.332,4.91,5.332H214.011z"/>
<path fill-rule="evenodd" clip-rule="evenodd" fill="#FFFFFF" d="M234.112,67.975V54.01c0-4.275-2.539-6.687-7.913-6.687
	c-3.302,0-5.46,0.72-7.195,3.131l1.566,1.354c1.269-1.86,2.75-2.58,5.629-2.58c4.147,0,5.755,1.734,5.755,4.994v2.284h-6.602
	c-4.444,0-7.11,2.159-7.11,5.883c0,1.523,0.55,3.004,1.481,3.979c1.312,1.353,3.006,1.859,6.01,1.859
	c2.877,0,4.486-0.549,6.221-2.284v2.031H234.112z M231.955,60.866c0,1.903-0.381,3.174-1.143,3.892
	c-1.439,1.398-3.217,1.567-5.078,1.567c-3.683,0-5.333-1.271-5.333-3.979c0-2.709,1.693-4.104,5.206-4.104h6.348V60.866z"/>
<path fill-rule="evenodd" clip-rule="evenodd" fill="#FFFFFF" d="M244.484,37.843h-2.666v2.667h2.666V37.843z M244.23,47.577h-2.159
	v20.396h2.159V47.577z"/>
<path fill-rule="evenodd" clip-rule="evenodd" fill="#FFFFFF" d="M268.052,67.975V54.94c0-2.413-0.763-4.358-2.116-5.671
	c-1.312-1.269-3.132-1.947-5.418-1.947c-2.454,0-4.484,0.891-6.009,2.666v-2.41h-2.158v20.396h2.158V55.32
	c0-3.85,2.116-6.092,5.756-6.092c3.638,0,5.628,2.158,5.628,6.092v12.654H268.052z"/>
<path fill="#FFFFFF" d="M290.351,62.177c0-3.978-2.582-5.035-5.969-5.332l-3.301-0.297c-2.878-0.254-4.146-1.31-4.146-3.427
	c0-2.497,1.859-3.936,5.205-3.936c2.241,0,4.146,0.593,5.712,1.734l1.438-1.438c-1.775-1.354-4.357-2.159-7.15-2.159
	c-4.444,0-7.322,2.286-7.322,5.798c0,3.173,2.031,4.994,6.136,5.333l3.388,0.296c2.664,0.253,3.893,1.311,3.893,3.427
	c0,2.751-2.158,4.148-6.137,4.148c-2.92,0-5.078-0.805-6.688-2.498l-1.479,1.481c2.072,1.989,4.696,2.919,8.252,2.919
	C287.177,68.228,290.351,65.902,290.351,62.177"/>
<path fill-rule="evenodd" clip-rule="evenodd" fill="#FFFFFF" d="M326.996,67.975l-4.316-5.247c1.903-2.328,2.624-5.417,2.624-9.184
	h-2.243c0,3.852-0.465,5.459-1.777,7.491l-8.633-10.454c0.718-0.465,2.243-1.523,2.243-1.523c1.904-1.27,3.47-2.962,3.47-5.417
	c0-3.385-2.709-6.051-6.136-6.051c-3.429,0-6.138,2.623-6.138,6.008c0,2.625,1.735,4.783,3.344,6.688
	c-3.556,2.37-6.898,4.57-6.898,9.353c0,5.12,3.81,8.59,9.354,8.59c4.994,0,8.083-2.664,9.268-3.807l2.92,3.554H326.996z
	 M316.12,43.641c0,1.99-1.481,3.174-3.048,4.232c0,0-1.184,0.805-1.734,1.185c-2.327-2.835-2.963-4.021-2.963-5.543
	c0-2.243,1.65-3.895,3.853-3.895C314.428,39.62,316.12,41.355,316.12,43.641 M319.887,62.854c-3.047,2.709-5.628,3.343-8.041,3.343
	c-4.147,0-7.024-2.708-7.024-6.687c0-3.895,3.089-5.755,5.924-7.703L319.887,62.854z"/>
<path fill-rule="evenodd" clip-rule="evenodd" fill="#FFFFFF" d="M361.738,59.765c0-3.47-1.905-6.178-5.163-7.279
	c2.92-0.974,4.696-3.639,4.696-6.77c0-4.995-3.723-7.873-8.718-7.873h-11.088v30.132h11.427
	C358.225,67.975,361.738,65.141,361.738,59.765 M358.988,45.716c0,4.146-3.049,5.839-6.688,5.839h-8.549v-11.68h8.549
	C355.939,39.875,358.988,41.567,358.988,45.716 M359.453,59.765c0,3.851-2.709,6.179-6.815,6.179h-8.886V53.587h8.886
	C356.744,53.587,359.453,55.912,359.453,59.765"/>
<path fill="#FFFFFF" d="M375.917,67.975v-1.903h-1.48c-2.413,0-3.132-1.143-3.132-3.429v-24.8h-2.159v24.842
	c0,3.175,1.608,5.29,4.909,5.29H375.917z"/>
<path fill-rule="evenodd" clip-rule="evenodd" fill="#FFFFFF" d="M383.7,37.843h-2.666v2.667h2.666V37.843z M383.445,47.577h-2.158
	v20.396h2.158V47.577z"/>
<path fill-rule="evenodd" clip-rule="evenodd" fill="#FFFFFF" d="M407.267,67.975V54.94c0-2.413-0.762-4.358-2.116-5.671
	c-1.312-1.269-3.132-1.947-5.418-1.947c-2.454,0-4.483,0.891-6.008,2.666v-2.41h-2.158v20.396h2.158V55.32
	c0-3.85,2.116-6.092,5.755-6.092c3.64,0,5.629,2.158,5.629,6.092v12.654H407.267z"/>
<path fill-rule="evenodd" clip-rule="evenodd" fill="#FFFFFF" d="M429.777,67.975V37.843h-2.159v12.358
	c-1.777-2.37-3.767-2.878-6.052-2.878c-2.115,0-3.936,0.72-4.993,1.777c-2.073,2.073-2.624,5.458-2.624,8.675
	c0,3.218,0.551,6.603,2.624,8.677c1.058,1.058,2.878,1.775,4.993,1.775c2.285,0,4.274-0.507,6.052-2.877v2.624H429.777z
	 M427.618,57.775c0,4.232-0.762,8.55-5.755,8.55s-5.757-4.317-5.757-8.55c0-4.231,0.764-8.548,5.757-8.548
	S427.618,53.544,427.618,57.775"/>
<path fill="#FFFFFF" d="M452.327,62.177c0-3.978-2.582-5.035-5.968-5.332l-3.302-0.297c-2.877-0.254-4.146-1.31-4.146-3.427
	c0-2.497,1.861-3.936,5.206-3.936c2.242,0,4.147,0.593,5.713,1.734l1.438-1.438c-1.775-1.354-4.357-2.159-7.15-2.159
	c-4.444,0-7.321,2.286-7.321,5.798c0,3.173,2.031,4.994,6.136,5.333l3.386,0.296c2.665,0.253,3.894,1.311,3.894,3.427
	c0,2.751-2.159,4.148-6.137,4.148c-2.92,0-5.077-0.805-6.686-2.498l-1.481,1.481c2.073,1.989,4.696,2.919,8.252,2.919
	C449.152,68.228,452.327,65.902,452.327,62.177"/>
<path fill="#FFFFFF" d="M146.529,87.932c-0.831,1.537-2.215,2.368-4.209,2.368c-3.047,0-4.612-1.717-4.612-4.029
	c0-2.866,1.621-4.433,4.501-4.433c1.924,0,3.489,0.694,4.196,2.341l1.052-0.483c-0.9-2.049-3.102-2.881-5.262-2.881
	c-3.393,0-5.732,1.842-5.732,5.303c0,2.922,1.841,5.263,5.746,5.263c2.45,0,4.32-0.832,5.4-2.923L146.529,87.932z"/>
<path fill-rule="evenodd" clip-rule="evenodd" fill="#FFFFFF" d="M149.785,86.159c0,3.573,2.99,5.221,5.898,5.221
	c2.909,0,5.899-1.647,5.899-5.221c0-3.351-2.479-5.345-5.899-5.345C152.264,80.814,149.785,82.809,149.785,86.159 M151.031,85.938
	c0-2.242,1.731-4.1,4.652-4.1c2.922,0,4.653,1.857,4.653,4.1c0,3.061-2.202,4.362-4.653,4.362
	C153.205,90.3,151.031,88.998,151.031,85.938"/>
<polygon fill="#FFFFFF" points="164.548,91.131 165.669,91.131 165.669,82.144 165.697,82.144 169.658,91.131 170.682,91.131 
	174.614,82.144 174.642,82.144 174.642,91.131 175.764,91.131 175.764,81.063 173.881,81.063 170.156,89.538 166.431,81.063 
	164.548,81.063 "/>
<path fill-rule="evenodd" clip-rule="evenodd" fill="#FFFFFF" d="M179.41,91.131h1.218v-4.293h4.68c2.036,0,3.891-0.582,3.891-2.895
	c0-2.298-1.855-2.88-3.891-2.88h-5.898V91.131z M180.628,82.144h4.362c2.021,0,3.046,0.43,3.046,1.814c0,1.37-1.025,1.8-3.046,1.8
	h-4.362V82.144z"/>
<polygon fill="#FFFFFF" points="191.941,91.131 201.107,91.131 201.107,90.05 193.159,90.05 193.159,81.063 191.941,81.063 "/>
<polygon fill="#FFFFFF" points="203.726,91.131 212.865,91.131 212.865,90.05 204.944,90.05 204.944,86.436 211.425,86.436 
	211.425,85.355 204.944,85.355 204.944,82.144 212.699,82.144 212.699,81.063 203.726,81.063 "/>
<polygon fill="#FFFFFF" points="219.347,91.131 220.565,91.131 220.565,82.144 225.426,82.144 225.426,81.063 214.486,81.063 
	214.486,82.144 219.347,82.144 "/>
<polygon fill="#FFFFFF" points="228.042,91.131 237.183,91.131 237.183,90.05 229.261,90.05 229.261,86.436 235.742,86.436 
	235.742,85.355 229.261,85.355 229.261,82.144 237.016,82.144 237.016,81.063 228.042,81.063 "/>
<polygon fill="#FFFFFF" points="247.057,91.131 248.22,91.131 250.684,82.919 250.712,82.919 253.163,91.131 254.326,91.131 
	257.456,81.063 256.182,81.063 253.772,89.191 253.745,89.191 251.252,81.063 250.09,81.063 247.609,89.232 247.583,89.232 
	245.201,81.063 243.913,81.063 "/>
<rect x="259.938" y="81.064" fill="#FFFFFF" width="1.219" height="10.066"/>
<polygon fill="#FFFFFF" points="264.799,91.131 265.962,91.131 265.962,82.144 274.021,91.131 275.24,91.131 275.24,81.063 
	274.021,81.063 274.021,89.344 266.53,81.063 264.799,81.063 "/>
<path fill-rule="evenodd" clip-rule="evenodd" fill="#FFFFFF" d="M278.883,91.131h4.583c2.659,0,5.775-1.026,5.775-5.123
	c0-3.296-2.258-4.944-5.387-4.944h-4.972V91.131z M280.103,82.144h3.752c2.05,0,4.141,0.873,4.141,3.822
	c0,3.96-3.338,4.084-4.334,4.084h-3.559V82.144z"/>
<path fill-rule="evenodd" clip-rule="evenodd" fill="#FFFFFF" d="M291.527,86.159c0,3.573,2.99,5.221,5.899,5.221
	c2.908,0,5.898-1.647,5.898-5.221c0-3.351-2.479-5.345-5.898-5.345C294.006,80.814,291.527,82.809,291.527,86.159 M292.772,85.938
	c0-2.242,1.732-4.1,4.654-4.1c2.921,0,4.652,1.857,4.652,4.1c0,3.061-2.202,4.362-4.652,4.362
	C294.948,90.3,292.772,88.998,292.772,85.938"/>
<polygon fill="#FFFFFF" points="308.271,91.131 309.434,91.131 311.898,82.919 311.925,82.919 314.377,91.131 315.54,91.131 
	318.67,81.063 317.396,81.063 314.986,89.191 314.958,89.191 312.466,81.063 311.303,81.063 308.824,89.232 308.796,89.232 
	306.415,81.063 305.126,81.063 "/>
<polygon fill="#FFFFFF" points="327.162,91.131 328.38,91.131 328.38,86.409 335.111,86.409 335.111,85.329 328.38,85.329 
	328.38,82.144 336.357,82.144 336.357,81.063 327.162,81.063 "/>
<path fill="#FFFFFF" d="M349.346,81.063h-1.218v5.927c0,2.312-1.481,3.364-3.96,3.364s-3.961-1.052-3.961-3.364v-5.927h-1.218v5.927
	c0,3.642,2.839,4.39,5.179,4.39c2.339,0,5.178-0.748,5.178-4.39V81.063z"/>
<path fill-rule="evenodd" clip-rule="evenodd" fill="#FFFFFF" d="M354.25,82.144h4.32c1.759,0,3.074,0.249,3.074,1.718
	c0,1.481-1.315,1.73-3.074,1.73h-4.32V82.144z M353.032,91.131h1.218v-4.459h3.96l3.241,4.459h1.509l-3.323-4.487
	c1.218-0.055,3.171-0.664,3.171-2.77c0-2.465-2.354-2.811-3.96-2.811h-5.815V91.131z"/>
<polygon fill="#FFFFFF" points="366.354,91.131 367.518,91.131 367.518,82.144 375.576,91.131 376.795,91.131 376.795,81.063 
	375.576,81.063 375.576,89.344 368.085,81.063 366.354,81.063 "/>
<rect x="380.438" y="81.064" fill="#FFFFFF" width="1.22" height="10.066"/>
<path fill="#FFFFFF" d="M384.454,89.055c0.858,0.954,2.077,2.325,5.373,2.325c3.42,0,5.054-1.399,5.054-3.084
	c0-4.518-8.778-1.604-8.778-4.657c0-1.273,1.426-1.8,3.447-1.8c2.742,0,3.712,1.289,4.127,1.759l0.886-0.721
	c-0.692-0.969-2.326-2.062-4.984-2.062c-2.743,0-4.722,0.872-4.722,3.019c0,4.089,8.778,1.399,8.778,4.463
	c0,1.561-2.118,2.004-3.669,2.004c-3.02,0-3.988-1.271-4.569-2.046L384.454,89.055z"/>
<polygon fill="#FFFFFF" points="397.872,91.131 399.09,91.131 399.09,86.409 407.011,86.409 407.011,91.131 408.23,91.131 
	408.23,81.063 407.011,81.063 407.011,85.329 399.09,85.329 399.09,81.063 397.872,81.063 "/>
<rect x="411.914" y="81.064" fill="#FFFFFF" width="1.219" height="10.066"/>
<polygon fill="#FFFFFF" points="416.775,91.131 417.938,91.131 417.938,82.144 425.997,91.131 427.217,91.131 427.217,81.063 
	425.997,81.063 425.997,89.344 418.507,81.063 416.775,81.063 "/>
<path fill-rule="evenodd" clip-rule="evenodd" fill="#FFFFFF" d="M435.858,86.242v1.081h4.085c-0.166,2.09-2.132,2.977-3.96,2.977
	c-2.992,0-4.557-1.717-4.557-4.03c0-2.865,1.62-4.431,4.445-4.431c1.357,0,3.213,0.485,4.001,2.284l1.026-0.539
	c-0.749-1.691-2.59-2.77-4.985-2.77c-3.393,0-5.732,1.842-5.732,5.303c0,2.922,1.841,5.263,5.746,5.263
	c2.271,0,3.365-0.846,4.043-1.634v1.468h1.08v-4.972H435.858z"/>
<path fill="#FFFFFF" d="M443.337,89.055c0.858,0.954,2.077,2.325,5.372,2.325c3.421,0,5.055-1.399,5.055-3.084
	c0-4.518-8.778-1.604-8.778-4.657c0-1.273,1.426-1.8,3.447-1.8c2.742,0,3.712,1.289,4.127,1.759l0.887-0.721
	c-0.693-0.969-2.327-2.062-4.985-2.062c-2.742,0-4.723,0.872-4.723,3.019c0,4.089,8.779,1.399,8.779,4.463
	c0,1.561-2.117,2.004-3.669,2.004c-3.02,0-3.988-1.271-4.569-2.046L443.337,89.055z"/>
<path fill="#77D609" d="M8.205,67.454c0-31.572,25.595-57.165,57.167-57.165c31.572,0,57.166,25.593,57.166,57.165
	c0,31.573-25.594,57.167-57.166,57.167C33.8,124.621,8.205,99.027,8.205,67.454"/>
<path fill="#FFFFFF" d="M74.546,38.612c0,0-12.943,14.842-24.805,33.617c7.217-0.557,15.452-0.643,23.641,0.235l-0.018-0.712
	c-0.113-4.578-0.9-7.724-0.4-7.994c0.502-0.269,1.463-0.179,1.417-0.807C74.336,62.323,73.016,45.078,74.546,38.612 M44.055,81.733
	c-6.072,10.788-11.139,22.211-12.92,32.5c-0.87,5.023-1.93,8.174-3.336,7.904c-1.408-0.271-1.415-2.783-1.125-6.018
	c0.288-3.234-0.117-4.042-0.515-2.335s-1.881,5.209-2.245,8.622c-0.362,3.413-2.43,6.017-2.864,3.592
	c-0.376-2.096-2.617-18.484,10.746-43.771c-1.667,0.054-2.855,0.055-3.132-0.057c-0.892-0.359-1.075-1.707,0.399-1.707
	s4.88-0.898,2.859-1.258c-2.022-0.36-5.136-0.269-5.111-2.335c0.008-0.672,3.783-1.91,9.79-2.995
	c0.856-1.376,1.756-2.771,2.705-4.189c13.399-20.036,30.021-39.786,33.03-44.995c3.009-5.209,1.371-6.288,2.996-5.39
	s4.811,1.795,8.213,2.065c3.402,0.27,1.896,2.245,1.055,7.455c-0.726,4.5-2.315,15.028-0.99,45.299
	c1.915,0.427,3.8,0.922,5.643,1.493c4.924,1.522,3.356,2.065,2.435,2.514c-0.923,0.449,1.808,2.246,1.68,2.874
	c-0.129,0.629,0.421,2.245-2.486,1.617c-2.908-0.628-3.807-1.078-3.068-0.448c0.614,0.521-0.349,1.602-3.768,0.664
	c0.126,2.287,0.268,4.668,0.425,7.149c0,0-0.7-0.09-0.823,0.628c-0.121,0.719,1.232,6.287,1.325,8.802
	c0.093,2.515-0.815,3.145-0.999,1.797c-0.183-1.348-0.457-6.378-0.977-6.378c-0.519,0-0.514,2.516-0.392,4.221
	c0.123,1.707-0.093,2.336-0.532,2.247c-0.441-0.09-0.685-1.079-0.431,1.258c0.254,2.334,1.261,7.902-0.43,8.531
	c-1.689,0.628-3.619-0.897-4.07-7.185s-0.959-20.658-1.123-21.734c-0.163-1.078-0.726,1.976-0.513,4.939
	c0.212,2.963,1.247,14.998,0.688,14.46c-0.49-0.475-1.812-3.229-2.556-21.316c-5.544-0.655-11.741-0.746-14.284-0.688
	c-3.983,0.091-5.624,0.181-5.574,0.898c0.052,0.72-3.119,1.257-8.496,1.257C44.897,81.722,44.487,81.727,44.055,81.733"/>
</svg>
